HIERARCHY
ROOT Hips
{
	OFFSET 0.000000 0.000000 0.000000
	CHANNELS 6 Xposition Yposition Zposition Zrotation Yrotation Xrotation 
	JOINT LHipJoint
	{
		OFFSET 0.000000 0.000000 0.000000
		CHANNELS 3 Zrotation Yrotation Xrotation
		JOINT LeftUpLeg
		{
			OFFSET 1.363060 -1.794630 0.839290
			CHANNELS 3 Zrotation Yrotation Xrotation
			JOINT LeftLeg
			{
				OFFSET 2.448110 -6.726130 0.000000
				CHANNELS 3 Zrotation Yrotation Xrotation
				JOINT LeftFoot
				{
					OFFSET 2.562200 -7.039590 0.000000
					CHANNELS 3 Zrotation Yrotation Xrotation
					JOINT LeftToeBase
					{
						OFFSET 0.157640 -0.433110 2.322550
						CHANNELS 3 Zrotation Yrotation Xrotation
						End Site
						{
							OFFSET 0.000000 0.000000 0.000000
						}
					}
				}
			}
		}
	}
	JOINT RHipJoint
	{
		OFFSET 0.000000 0.000000 0.000000
		CHANNELS 3 Zrotation Yrotation Xrotation
		JOINT RightUpLeg
		{
			OFFSET -1.305520 -1.794630 0.839290
			CHANNELS 3 Zrotation Yrotation Xrotation
			JOINT RightLeg
			{
				OFFSET -2.542530 -6.985550 0.000000
				CHANNELS 3 Zrotation Yrotation Xrotation
				JOINT RightFoot
				{
					OFFSET -2.568260 -7.056230 0.000000
					CHANNELS 3 Zrotation Yrotation Xrotation
					JOINT RightToeBase
					{
						OFFSET -0.164730 -0.452590 2.363150
						CHANNELS 3 Zrotation Yrotation Xrotation
						End Site
						{
							OFFSET 0.000000 0.000000 0.000000
						}
					}
				}
			}
		}
	}
	JOINT LowerBack
	{
		OFFSET 0.000000 0.000000 0.000000
		CHANNELS 3 Zrotation Yrotation Xrotation
		JOINT Spine
		{
			OFFSET 0.028270 2.035590 -0.193380
			CHANNELS 3 Zrotation Yrotation Xrotation
			JOINT Spine1
			{
				OFFSET 0.056720 2.048850 -0.042750
				CHANNELS 3 Zrotation Yrotation Xrotation
				JOINT Neck
				{
					OFFSET 0.000000 0.000000 0.000000
					CHANNELS 3 Zrotation Yrotation Xrotation
					JOINT Neck1
					{
						OFFSET -0.054170 1.746240 0.172020
						CHANNELS 3 Zrotation Yrotation Xrotation
						JOINT Head
						{
							OFFSET 0.104070 1.761360 -0.123970
							CHANNELS 3 Zrotation Yrotation Xrotation
							End Site
							{
								OFFSET 0.000000 0.000000 0.000000
							}
						}
					}
				}
				JOINT LeftShoulder
				{
					OFFSET 0.000000 0.000000 0.000000
					CHANNELS 3 Zrotation Yrotation Xrotation
					JOINT LeftArm
					{
						OFFSET 3.362410 1.200890 -0.311210
						CHANNELS 3 Zrotation Yrotation Xrotation
						JOINT LeftForeArm
						{
							OFFSET 4.983000 -0.000000 -0.000000
							CHANNELS 3 Zrotation Yrotation Xrotation
							JOINT LeftHand
							{
								OFFSET 3.483560 -0.000000 -0.000000
								CHANNELS 3 Zrotation Yrotation Xrotation
								JOINT LeftFingerBase
								{
									OFFSET 0.000000 0.000000 0.000000
									CHANNELS 3 Zrotation Yrotation Xrotation
									JOINT LeftHandIndex1
									{
										OFFSET 0.715260 -0.000000 -0.000000
										CHANNELS 3 Zrotation Yrotation Xrotation
										End Site
										{
											OFFSET 0.000000 0.000000 0.000000
										}
									}
								}
								JOINT LThumb
								{
									OFFSET 0.000000 0.000000 0.000000
									CHANNELS 3 Zrotation Yrotation Xrotation
									End Site
									{
										OFFSET 0.000000 0.000000 0.000000
									}
								}
							}
						}
					}
				}
				JOINT RightShoulder
				{
					OFFSET 0.000000 0.000000 0.000000
					CHANNELS 3 Zrotation Yrotation Xrotation
					JOINT RightArm
					{
						OFFSET -3.136600 1.374050 -0.404650
						CHANNELS 3 Zrotation Yrotation Xrotation
						JOINT RightForeArm
						{
							OFFSET -5.241900 -0.000000 -0.000000
							CHANNELS 3 Zrotation Yrotation Xrotation
							JOINT RightHand
							{
								OFFSET -3.444170 -0.000000 -0.000000
								CHANNELS 3 Zrotation Yrotation Xrotation
								JOINT RightFingerBase
								{
									OFFSET 0.000000 0.000000 0.000000
									CHANNELS 3 Zrotation Yrotation Xrotation
									JOINT RightHandIndex1
									{
										OFFSET -0.622530 -0.000000 -0.000000
										CHANNELS 3 Zrotation Yrotation Xrotation
										End Site
										{
											OFFSET 0.000000 0.000000 0.000000
										}
									}
								}
								JOINT RThumb
								{
									OFFSET 0.000000 0.000000 0.000000
									CHANNELS 3 Zrotation Yrotation Xrotation
									End Site
									{
										OFFSET 0.000000 0.000000 0.000000
									}
								}
							}
						}
					}
				}
			}
		}
	}
}
MOTION
Frames: 10
Frame Time: 0.008333
2.582179 15.736445 -1.444251 71.271582 -76.857126 -19.560100 -7.656743 0.126229 10.173229 6.066622 -22.312996 -132.011413 -9.055108 -1.460285 5.564196 -1.347964 -2.505563 6.775867 0.953400 -0.000000 -48.991000 8.174997 4.243971 -3.519365 7.862902 -2.160903 -81.892510 1.899553 -5.779077 56.686973 -3.193189 -6.428766 -25.549059 2.026200 -0.000000 -41.625301 -4.648205 -2.750425 0.983535 -1.639566 -2.578391 -2.807847 -5.018965 -2.573377 0.133428 11.669974 -13.908077 -10.121326 -1.993693 -0.076263 -1.303218 0.000000 0.000000 0.000000 7.883462 8.016870 3.190838 -67.700982 20.534593 7.389669 -0.190332 -84.762257 0.007164 -1.644801 1.979607 -0.024784 -0.001386 0.201509 -0.000000 0.000000 0.000000 0.000000 0.000000 0.000000 0.000000 10.270930 -8.987863 0.748811 60.381653 14.876587 4.529975 178.600028 72.146103 179.983091 -3.139059 3.751668 -0.122582 0.159692 -0.538079 -0.000000 0.000000 0.000000 0.000000 0.000000 0.000000 0.000000 
2.592292 15.702677 -1.460403 72.096984 -76.645745 -20.264926 -7.615066 0.099414 10.005559 5.740029 -22.427810 -131.284009 -8.950343 -1.222447 6.073794 -1.590339 -3.113258 8.322424 0.702800 -0.000000 -48.813500 8.195522 4.364158 -3.490985 7.451202 -2.174411 -82.370978 1.803688 -5.838873 57.355435 -3.234394 -6.557264 -25.855916 2.097900 0.000000 -41.286100 -4.778158 -2.738117 1.173725 -1.673007 -2.561961 -2.775934 -4.998411 -2.555218 0.051860 11.519115 -13.722704 -9.905877 -2.032218 -0.082108 -1.250209 0.000000 0.000000 0.000000 7.774603 7.627690 3.169317 -67.293434 19.975526 7.355342 -0.168674 -85.194842 0.006367 -1.395461 1.915409 -0.019961 -0.005062 0.207812 -0.000000 0.000000 0.000000 0.000000 0.000000 0.000000 0.000000 10.243497 -8.840865 0.743718 60.794580 15.021170 4.769134 178.644912 72.484594 179.981026 -3.389829 3.790764 -0.133281 0.162837 -0.538720 -0.000000 0.000000 0.000000 0.000000 0.000000 0.000000 0.000000 
2.599711 15.672733 -1.475848 72.927587 -76.432746 -20.991203 -7.557235 0.084428 9.833075 5.268931 -22.622516 -130.329422 -8.847044 -1.039038 6.484685 -1.763359 -3.564233 9.586497 0.488600 0.000000 -48.316100 8.217678 4.471170 -3.437543 7.018163 -2.165809 -82.794689 1.706059 -5.881018 57.944131 -3.281827 -6.717233 -26.129897 2.170500 -0.000000 -40.984300 -4.900432 -2.721922 1.329853 -1.704735 -2.542530 -2.751056 -4.977258 -2.534661 -0.025839 11.369836 -13.563633 -9.712384 -2.069505 -0.087554 -1.202325 0.000000 0.000000 0.000000 7.672172 7.242012 3.148885 -66.899420 19.406756 7.262757 -0.148790 -85.593671 0.005319 -1.097159 1.843634 -0.014733 -0.009779 0.214238 -0.000000 0.000000 0.000000 0.000000 0.000000 0.000000 0.000000 10.219689 -8.715172 0.742831 61.215530 15.163047 5.036767 178.688922 72.832587 179.979030 -3.632476 3.831576 -0.143979 0.165805 -0.539446 -0.000000 0.000000 0.000000 0.000000 0.000000 0.000000 0.000000 
2.604164 15.646494 -1.489604 73.722064 -76.226855 -21.688654 -7.491263 0.082468 9.667243 4.701847 -22.876108 -129.208754 -8.737442 -0.899165 6.860871 -1.852847 -3.779637 10.496910 0.363500 0.000000 -47.752399 8.239270 4.558446 -3.360496 6.588125 -2.134649 -83.176231 1.610613 -5.908180 58.451488 -3.332443 -6.895268 -26.364219 2.240699 0.000000 -40.742100 -4.999469 -2.702733 1.439552 -1.730586 -2.521365 -2.735978 -4.954417 -2.513147 -0.097068 11.219633 -13.431108 -9.542577 -2.105068 -0.092577 -1.159699 0.000000 0.000000 0.000000 7.577199 6.870427 3.128590 -66.536084 18.840399 7.113881 -0.130519 -85.960649 0.004009 -0.750535 1.770405 -0.009102 -0.015477 0.220709 -0.000000 0.000000 0.000000 0.000000 0.000000 0.000000 0.000000 10.194375 -8.611421 0.745609 61.627931 15.303486 5.336447 178.730584 73.181556 179.977223 -3.853199 3.876602 -0.154175 0.168403 -0.540257 -0.000000 0.000000 0.000000 0.000000 0.000000 0.000000 0.000000 
2.605856 15.624022 -1.501289 74.481767 -76.032157 -22.359641 -7.422613 0.095738 9.509442 4.061736 -23.172380 -127.966706 -8.614331 -0.783730 7.283843 -1.855407 -3.717836 11.029945 0.360400 -0.000000 -47.289200 8.260417 4.625879 -3.262685 6.169971 -2.086945 -83.518720 1.519760 -5.922626 58.880964 -3.383404 -7.077737 -26.562197 2.306200 -0.000001 -40.524000 -5.074427 -2.682857 1.504321 -1.749734 -2.500490 -2.729662 -4.928591 -2.492608 -0.158798 11.070339 -13.327625 -9.399454 -2.138051 -0.097065 -1.123211 0.000000 0.000000 0.000000 7.498500 6.527808 3.107945 -66.218245 18.279019 6.914420 -0.113748 -86.296952 0.002442 -0.360047 1.699904 -0.003465 -0.022012 0.227207 -0.000000 0.000000 0.000000 0.000000 0.000000 0.000000 0.000000 10.166441 -8.532939 0.751320 62.023134 15.453825 5.672825 178.768793 73.526892 179.975722 -4.038993 3.929782 -0.163369 0.170439 -0.541210 -0.000000 0.000000 0.000000 0.000000 0.000000 0.000000 0.000000 
2.604597 15.604938 -1.509784 75.146875 -75.860782 -22.940063 -7.359911 0.120934 9.367360 3.403520 -23.483924 -126.668998 -8.463760 -0.670681 7.837628 -1.773535 -3.365304 11.215755 0.490200 -0.000000 -47.039400 8.278546 4.665656 -3.146855 5.797746 -2.023284 -83.832535 1.438006 -5.928116 59.232439 -3.431043 -7.249426 -26.714020 2.362400 -0.000000 -40.408500 -5.104009 -2.662719 1.514417 -1.756835 -2.480825 -2.734886 -4.899476 -2.474117 -0.210697 10.919252 -13.247010 -9.281689 -2.168087 -0.101052 -1.092092 0.000000 0.000000 0.000000 7.431825 6.220241 3.086424 -65.957170 17.740091 6.669699 -0.097932 -86.613641 0.000644 0.064901 1.638627 0.002072 -0.029188 0.233627 -0.000000 0.000000 0.000000 0.000000 0.000000 0.000000 0.000000 10.127396 -8.472614 0.759369 62.384875 15.604054 6.041917 178.802094 73.854507 179.974631 -4.177819 3.990356 -0.171162 0.171756 -0.542263 -0.000000 0.000000 0.000000 0.000000 0.000000 0.000000 0.000000 
2.600499 15.589092 -1.514818 75.715888 -75.718903 -23.431315 -7.306951 0.156710 9.237193 2.746841 -23.792913 -125.351361 -8.275853 -0.538548 8.596856 -1.615518 -2.746322 11.113989 0.738200 -0.000000 -47.011599 8.293949 4.677648 -3.016630 5.484064 -1.949133 -84.116533 1.367643 -5.927186 59.510861 -3.472787 -7.398209 -26.823105 2.407200 0.000000 -40.385600 -5.086152 -2.643814 1.476171 -1.751131 -2.463691 -2.749981 -4.866651 -2.458856 -0.252216 10.769104 -13.187775 -9.189671 -2.194452 -0.104469 -1.066603 0.000000 0.000000 0.000000 7.380731 5.955385 3.064068 -65.758313 17.231318 6.386880 -0.082572 -86.921077 -0.001340 0.511875 1.589545 0.007411 -0.036737 0.239942 -0.000000 0.000000 0.000000 0.000000 0.000000 0.000000 0.000000 10.075593 -8.428632 0.769585 62.706830 15.756959 6.441748 178.829595 74.157725 179.974025 -4.260692 4.059006 -0.177153 0.172243 -0.543432 -0.000000 0.000000 0.000000 0.000000 0.000000 0.000000 0.000000 
2.593830 15.576268 -1.516145 76.172060 -75.613218 -23.823194 -7.266170 0.199298 9.115214 2.116975 -24.080261 -124.048089 -8.040458 -0.370396 9.615245 -1.393019 -1.905992 10.811737 1.075300 0.000000 -47.157100 8.306478 4.661175 -2.875166 5.243590 -1.867704 -84.370396 1.310879 -5.922353 59.721216 -3.506521 -7.513650 -26.893341 2.439200 0.000000 -40.439500 -5.016757 -2.627161 1.394483 -1.731534 -2.450110 -2.774036 -4.830592 -2.447739 -0.284139 10.622664 -13.145280 -9.121855 -2.216693 -0.107309 -1.046297 0.000000 0.000000 0.000000 7.345558 5.735546 3.041097 -65.622065 16.764677 6.073164 -0.066968 -87.234781 -0.003446 0.964877 1.555798 0.012451 -0.044360 0.246090 -0.000000 0.000000 0.000000 0.000000 0.000000 0.000000 0.000000 10.008477 -8.395379 0.781806 62.983809 15.907877 6.865905 178.850573 74.428085 179.973951 -4.281883 4.134148 -0.181043 0.171831 -0.544701 -0.000000 0.000000 0.000000 0.000000 0.000000 0.000000 0.000000 
2.584963 15.566411 -1.513978 76.529615 -75.547644 -24.141388 -7.237123 0.246212 8.986924 1.500678 -24.336699 -122.767828 -7.754158 -0.149621 10.943930 -1.125043 -0.924193 10.395623 1.458300 -0.000000 -47.374301 8.317308 4.618909 -2.726187 5.079223 -1.782896 -84.580935 1.268146 -5.914521 59.868284 -3.531073 -7.591090 -26.929652 2.458100 -0.000000 -40.572600 -4.900232 -2.613106 1.287408 -1.699144 -2.440176 -2.802689 -4.791251 -2.440573 -0.307566 10.483232 -13.118907 -9.077431 -2.234038 -0.109494 -1.031375 0.000000 0.000000 0.000000 7.328679 5.562525 3.017938 -65.544739 16.342227 5.736312 -0.050626 -87.566193 -0.005600 1.407820 1.535919 0.017390 -0.051740 0.252106 -0.000000 0.000000 0.000000 0.000000 0.000000 0.000000 0.000000 9.925219 -8.371398 0.796158 63.217954 16.060016 7.307786 178.865125 74.664591 179.974418 -4.239835 4.215563 -0.182431 0.170480 -0.546086 -0.000000 0.000000 0.000000 0.000000 0.000000 0.000000 0.000000 
2.574182 15.559344 -1.508482 76.785726 -75.525125 -24.390439 -7.218199 0.292052 8.843261 0.903408 -24.546908 -121.512772 -7.412405 0.128139 12.590797 -0.830670 0.128529 9.960124 1.852300 0.000000 -47.557800 8.327115 4.552784 -2.571780 4.994653 -1.695920 -84.742913 1.239759 -5.904738 59.957477 -3.546166 -7.628551 -26.938017 2.464800 -0.000000 -40.765600 -4.737960 -2.602076 1.165491 -1.654512 -2.434302 -2.833720 -4.749784 -2.437598 -0.324574 10.354275 -13.104773 -9.053458 -2.246158 -0.111031 -1.021173 0.000000 0.000000 0.000000 7.328159 5.431828 2.995155 -65.516895 15.972831 5.383127 -0.032883 -87.931194 -0.007718 1.823697 1.529584 0.021926 -0.058585 0.257964 -0.000000 0.000000 0.000000 0.000000 0.000000 0.000000 0.000000 9.824602 -8.351933 0.812495 63.411195 16.207578 7.757237 178.873068 74.859339 179.975389 -4.137888 4.300447 -0.181320 0.168250 -0.547592 -0.000000 0.000000 0.000000 0.000000 0.000000 0.000000 0.000000 
